<svg xmlns="http://www.w3.org/2000/svg" width="1024" height="1024" viewBox="0 0 1024 1024" fill="none">
  <defs>
    <linearGradient id="bg" x1="512" y1="40" x2="512" y2="984" gradientUnits="userSpaceOnUse">
      <stop offset="0" stop-color="#FF704D"/>
      <stop offset="1" stop-color="#FFD22E"/>
    </linearGradient>
    <linearGradient id="green" x1="350" y1="300" x2="760" y2="760" gradientUnits="userSpaceOnUse">
      <stop offset="0" stop-color="#7ED321"/>
      <stop offset="1" stop-color="#12A83A"/>
    </linearGradient>
    <linearGradient id="leaf" x1="760" y1="780" x2="900" y2="900" gradientUnits="userSpaceOnUse">
      <stop offset="0" stop-color="#A4DA1D"/>
      <stop offset="1" stop-color="#199B2F"/>
    </linearGradient>
    <radialGradient id="plateHi" cx="0" cy="0" r="1" gradientUnits="userSpaceOnUse" gradientTransform="translate(460 380) rotate(45) scale(460)">
      <stop offset="0" stop-color="#FFFFFF"/>
      <stop offset="1" stop-color="#F3F3F3"/>
    </radialGradient>
    <filter id="shadow" x="0" y="0" width="1024" height="1024" filterUnits="userSpaceOnUse" color-interpolation-filters="sRGB">
      <feDropShadow dx="0" dy="18" stdDeviation="20" flood-color="#000000" flood-opacity="0.18"/>
    </filter>
    <filter id="softShadow" x="0" y="0" width="1024" height="1024" filterUnits="userSpaceOnUse" color-interpolation-filters="sRGB">
      <feDropShadow dx="0" dy="10" stdDeviation="12" flood-color="#000000" flood-opacity="0.15"/>
    </filter>
  </defs>

  <rect x="40" y="40" width="944" height="944" rx="160" fill="url(#bg)"/>

  <g opacity="0.95">
    <path d="M205 222L217 257L252 269L217 281L205 316L193 281L158 269L193 257L205 222Z" fill="white"/>
    <path d="M264 140L279 184L323 199L279 214L264 258L249 214L205 199L249 184L264 140Z" fill="white"/>
  </g>

  <g filter="url(#shadow)">
    <circle cx="512" cy="555" r="330" fill="url(#plateHi)"/>
    <circle cx="512" cy="555" r="255" fill="#FAFAFA" stroke="#EFEFEF" stroke-width="10"/>
  </g>

  <g filter="url(#softShadow)">
    <path d="M328 522C352 498 387 499 411 523L489 600L707 382C730 359 767 360 790 383C813 406 813 443 790 466L534 723C511 746 474 747 451 724L328 601C305 578 305 545 328 522Z" fill="url(#green)"/>
    <rect x="685" y="301" width="42" height="157" rx="21" transform="rotate(45 685 301)" fill="url(#green)"/>
    <rect x="721" y="265" width="20" height="74" rx="10" transform="rotate(45 721 265)" fill="url(#green)"/>
    <rect x="761" y="225" width="20" height="74" rx="10" transform="rotate(45 761 225)" fill="url(#green)"/>
    <rect x="801" y="185" width="20" height="74" rx="10" transform="rotate(45 801 185)" fill="url(#green)"/>
    <rect x="841" y="145" width="20" height="74" rx="10" transform="rotate(45 841 145)" fill="url(#green)"/>
  </g>

  <g filter="url(#softShadow)">
    <path d="M690 812C744 783 816 780 866 792C854 846 816 896 758 916C710 932 667 922 648 904C651 870 662 833 690 812Z" fill="url(#leaf)"/>
    <path d="M615 835C648 825 687 829 715 846C699 885 669 916 627 926C594 934 566 926 553 913C560 884 582 845 615 835Z" fill="url(#leaf)"/>
    <path d="M553 913C603 855 675 817 820 789" stroke="#BFE86D" stroke-width="5" stroke-linecap="round" opacity="0.8"/>
    <path d="M553 913C590 876 628 861 675 852" stroke="#BFE86D" stroke-width="4" stroke-linecap="round" opacity="0.8"/>
  </g>

  <g opacity="0.95">
    <path d="M884 615C900 600 919 600 931 611C920 632 901 642 882 639C880 630 880 622 884 615Z" fill="white"/>
    <path d="M844 578C860 562 881 560 896 568C891 592 873 606 852 607C844 597 841 587 844 578Z" fill="white"/>
  </g>
</svg>
